<svg xmlns="http://www.w3.org/2000/svg" viewBox="0 0 1051.09 409.67"><defs><style>.cls-1{fill:#0d4322;}.cls-2,.cls-3,.cls-4,.cls-5{fill:#e6b16b;}.cls-3{font-size:47.79px;}.cls-3,.cls-4{font-family:Cairo-SemiBold, Cairo;font-weight:600;}.cls-4{font-size:44.01px;}.cls-5{font-size:66.02px;font-family:Cairo-Bold, Cairo;font-weight:700;}</style></defs><g id="Layer_2" data-name="Layer 2"><g id="Layer_1-2" data-name="Layer 1"><circle class="cls-1" cx="957.66" cy="192.87" r="28.58"/><circle class="cls-1" cx="816.95" cy="333.5" r="28.58"/><circle class="cls-1" cx="677.12" cy="192.87" r="28.58"/><circle class="cls-1" cx="816.95" cy="57.96" r="28.58"/><path class="cls-1" d="M1050.6,0h5.82V201a184.49,184.49,0,0,1-184,184c-11.91,0-206.92-2.74-218.8-3.33V369.73c11.26,2.34,206.87,3.57,218.8,3.57A172.86,172.86,0,0,0,1044.78,201l1-189.33H764.54V0" transform="translate(-5.33)"/><path class="cls-1" d="M919,192.57a58.07,58.07,0,0,1,48-57.19,156.11,156.11,0,0,0-88.73-87.8,58.07,58.07,0,0,1-113.67.71,156.1,156.1,0,0,0-87,87.16,58.07,58.07,0,0,1-.38,113.79,156.09,156.09,0,0,0,86.74,87.91,58.07,58.07,0,0,1,114.1,1,156.06,156.06,0,0,0,89.1-88.36A58.08,58.08,0,0,1,919,192.57Z" transform="translate(-5.33)"/><path class="cls-2" d="M51.56,167q6.8-.7,14.24-2.1l1.54,10.38q-6.73,1.68-14.87,3a96.42,96.42,0,0,1-14.59,1.26q-15.72,0-24-8.42t-8.28-24a35.86,35.86,0,0,1,3.44-16q3.43-7,11.71-10.24a40,40,0,0,1-4.7-11A50.23,50.23,0,0,1,14.45,97a38.3,38.3,0,0,1,3.93-17.75A28,28,0,0,1,29.32,67.54a31,31,0,0,1,15.85-4.06A52.17,52.17,0,0,1,56.4,64.81a49.34,49.34,0,0,1,10.94,3.72l-.56,12.06a42.3,42.3,0,0,0-9-3.37,42,42,0,0,0-11.22-1.68Q38,75.54,33,81.15t-5,16.56q0,12.77,7.43,20.9a63.27,63.27,0,0,1,13.33,1.61,44.08,44.08,0,0,1,9.68,3.3v11.65a43.09,43.09,0,0,0-9.75-3.3,51.73,51.73,0,0,0-11.85-1.47q-8.56,0-13.19,4.34t-4.63,13.33q0,9.41,5.26,14.52t16.34,5.12Q44.76,167.71,51.56,167Z" transform="translate(-5.33)"/><path class="cls-2" d="M85,35.28H98.34v99.89H85Z" transform="translate(-5.33)"/><path class="cls-2" d="M169.47,135.17H150.11V136q0,16.55-5.75,25.32T127,170.1a63.81,63.81,0,0,1-7-.42l-3.37-.28V157.61c3.09.28,5.61.42,7.58.42A10.61,10.61,0,0,0,133.7,153q3.23-5,3.22-14.17V65.16h13.19v58.08h19.36ZM137.06,38.22h12.77V52H137.06Z" transform="translate(-5.33)"/><path class="cls-2" d="M224.6,123.24v11.93H169.47V123.24h20.9V65H203.7v58.22Zm-33.95-85h12.77V52H190.65Z" transform="translate(-5.33)"/><path class="cls-2" d="M255.19,35.28v99.89H224.6V123.24h17.26v-88Z" transform="translate(-5.33)"/><path class="cls-2" d="M279.6,35.28h13.32v99.89H279.6Z" transform="translate(-5.33)"/><path class="cls-2" d="M360.68,166A33.58,33.58,0,0,1,347,155a26.53,26.53,0,0,1-5-15.72q0-9.67,5.47-42.5l12.63.7q-2.1,13.32-3.58,25t-1.47,15.64a17.14,17.14,0,0,0,3.23,10.17,21.63,21.63,0,0,0,8.91,7.16A29.82,29.82,0,0,0,379.76,158q10.11,0,16.91-5.4a17.59,17.59,0,0,0,6.8-14.52V35.28H416.8V139.65A27.3,27.3,0,0,1,412,155.79a30.85,30.85,0,0,1-13.19,10.52,49.35,49.35,0,0,1-38.09-.35Z" transform="translate(-5.33)"/><path class="cls-2" d="M511.07,135.17H493.54q-1,16.54-6.81,25.67T467.58,170q-5.9,0-22.16-2.25V155.79A142.21,142.21,0,0,0,466.6,158a15.53,15.53,0,0,0,7.72-1.68c2-1.12,3.46-3.35,4.49-6.66s1.54-8.17,1.54-14.52H461.13q-16.28,0-21.4-10t-5.12-24.69q.15-13.89,3-22.16a21.61,21.61,0,0,1,9.54-12.14q6.66-3.85,18.17-3.86a137.78,137.78,0,0,1,14.8.92q8.34.91,13.68,2v57.94h17.25Zm-59.76-18.45q3.36,6.52,14.17,6.52h15v-48a88,88,0,0,0-12.21-1q-11.36,0-15.78,6t-4.56,19.85Q447.94,110.2,451.31,116.72Z" transform="translate(-5.33)"/><path class="cls-2" d="M558.49,123.24v11.93H511.07V123.24h17.26v-88h13.32v88Z" transform="translate(-5.33)"/><path class="cls-2" d="M620.64,69Q627,74.42,627,87.33v47.84H558.49V123.24h55.28V88.73q0-13.47-13.75-13.47-6.18,0-29,2.25l-.42-9.4q7.58-1.83,17-3.16a116,116,0,0,1,15.64-1.33Q614.33,63.62,620.64,69Z" transform="translate(-5.33)"/><text class="cls-3" transform="translate(-10.04 223.46)">ةينوناقلا تاراشتسلاو ةاماحملل</text><text class="cls-4" transform="translate(625.86 341.76)"> </text><text class="cls-5" transform="translate(626.1 295.52)"> </text><circle class="cls-1" cx="957.66" cy="192.87" r="28.58"/><circle class="cls-1" cx="816.95" cy="333.5" r="28.58"/><circle class="cls-1" cx="677.12" cy="192.87" r="28.58"/><circle class="cls-1" cx="816.95" cy="57.96" r="28.58"/><path class="cls-1" d="M1050.6,0h5.82V201a184.49,184.49,0,0,1-184,184c-11.91,0-206.92-2.74-218.8-3.33V369.73c11.26,2.34,206.87,3.57,218.8,3.57A172.86,172.86,0,0,0,1044.78,201l1-189.33H764.54V0" transform="translate(-5.33)"/><path class="cls-1" d="M919,192.57a58.07,58.07,0,0,1,48-57.19,156.11,156.11,0,0,0-88.73-87.8,58.07,58.07,0,0,1-113.67.71,156.1,156.1,0,0,0-87,87.16,58.07,58.07,0,0,1-.38,113.79,156.09,156.09,0,0,0,86.74,87.91,58.07,58.07,0,0,1,114.1,1,156.06,156.06,0,0,0,89.1-88.36A58.08,58.08,0,0,1,919,192.57Z" transform="translate(-5.33)"/><path class="cls-2" d="M51.56,167q6.8-.7,14.24-2.1l1.54,10.38q-6.73,1.68-14.87,3a96.42,96.42,0,0,1-14.59,1.26q-15.72,0-24-8.42t-8.28-24a35.86,35.86,0,0,1,3.44-16q3.43-7,11.71-10.24a40,40,0,0,1-4.7-11A50.23,50.23,0,0,1,14.45,97a38.3,38.3,0,0,1,3.93-17.75A28,28,0,0,1,29.32,67.54a31,31,0,0,1,15.85-4.06A52.17,52.17,0,0,1,56.4,64.81a49.34,49.34,0,0,1,10.94,3.72l-.56,12.06a42.3,42.3,0,0,0-9-3.37,42,42,0,0,0-11.22-1.68Q38,75.54,33,81.15t-5,16.56q0,12.77,7.43,20.9a63.27,63.27,0,0,1,13.33,1.61,44.08,44.08,0,0,1,9.68,3.3v11.65a43.09,43.09,0,0,0-9.75-3.3,51.73,51.73,0,0,0-11.85-1.47q-8.56,0-13.19,4.34t-4.63,13.33q0,9.41,5.26,14.52t16.34,5.12Q44.76,167.71,51.56,167Z" transform="translate(-5.33)"/><path class="cls-2" d="M85,35.28H98.34v99.89H85Z" transform="translate(-5.33)"/><path class="cls-2" d="M169.47,135.17H150.11V136q0,16.55-5.75,25.32T127,170.1a63.81,63.81,0,0,1-7-.42l-3.37-.28V157.61c3.09.28,5.61.42,7.58.42A10.61,10.61,0,0,0,133.7,153q3.23-5,3.22-14.17V65.16h13.19v58.08h19.36ZM137.06,38.22h12.77V52H137.06Z" transform="translate(-5.33)"/><path class="cls-2" d="M224.6,123.24v11.93H169.47V123.24h20.9V65H203.7v58.22Zm-33.95-85h12.77V52H190.65Z" transform="translate(-5.33)"/><path class="cls-2" d="M255.19,35.28v99.89H224.6V123.24h17.26v-88Z" transform="translate(-5.33)"/><path class="cls-2" d="M279.6,35.28h13.32v99.89H279.6Z" transform="translate(-5.33)"/><path class="cls-2" d="M360.68,166A33.58,33.58,0,0,1,347,155a26.53,26.53,0,0,1-5-15.72q0-9.67,5.47-42.5l12.63.7q-2.1,13.32-3.58,25t-1.47,15.64a17.14,17.14,0,0,0,3.23,10.17,21.63,21.63,0,0,0,8.91,7.16A29.82,29.82,0,0,0,379.76,158q10.11,0,16.91-5.4a17.59,17.59,0,0,0,6.8-14.52V35.28H416.8V139.65A27.3,27.3,0,0,1,412,155.79a30.85,30.85,0,0,1-13.19,10.52,49.35,49.35,0,0,1-38.09-.35Z" transform="translate(-5.33)"/><path class="cls-2" d="M511.07,135.17H493.54q-1,16.54-6.81,25.67T467.58,170q-5.9,0-22.16-2.25V155.79A142.21,142.21,0,0,0,466.6,158a15.53,15.53,0,0,0,7.72-1.68c2-1.12,3.46-3.35,4.49-6.66s1.54-8.17,1.54-14.52H461.13q-16.28,0-21.4-10t-5.12-24.69q.15-13.89,3-22.16a21.61,21.61,0,0,1,9.54-12.14q6.66-3.85,18.17-3.86a137.78,137.78,0,0,1,14.8.92q8.34.91,13.68,2v57.94h17.25Zm-59.76-18.45q3.36,6.52,14.17,6.52h15v-48a88,88,0,0,0-12.21-1q-11.36,0-15.78,6t-4.56,19.85Q447.94,110.2,451.31,116.72Z" transform="translate(-5.33)"/><path class="cls-2" d="M558.49,123.24v11.93H511.07V123.24h17.26v-88h13.32v88Z" transform="translate(-5.33)"/><path class="cls-2" d="M620.64,69Q627,74.42,627,87.33v47.84H558.49V123.24h55.28V88.73q0-13.47-13.75-13.47-6.18,0-29,2.25l-.42-9.4q7.58-1.83,17-3.16a116,116,0,0,1,15.64-1.33Q614.33,63.62,620.64,69Z" transform="translate(-5.33)"/><text class="cls-3" transform="translate(-10.04 223.46)">ةينوناقلا تاراشتسلاو ةاماحملل</text><text class="cls-4" transform="translate(625.86 341.76)"> </text><text class="cls-5" transform="translate(626.1 295.52)"> </text></g></g></svg>